<svg xmlns="http://www.w3.org/2000/svg" xmlns:xlink="http://www.w3.org/1999/xlink" width="2000" zoomAndPan="magnify" viewBox="0 0 1500 1499.999933" height="2000" preserveAspectRatio="xMidYMid meet" version="1.0"><defs><g/><clipPath id="d60ea4f077"><rect x="0" width="1232" y="0" height="386"/></clipPath><clipPath id="823c42467d"><path d="M 726 563 L 829 563 L 829 658.152344 L 726 658.152344 Z M 726 563 " clip-rule="nonzero"/></clipPath></defs><rect x="-150" width="1800" fill="#ffffff" y="-149.999993" height="1799.99992" fill-opacity="1"/><rect x="-150" width="1800" fill="#ff7a00" y="-149.999993" height="1799.99992" fill-opacity="1"/><g transform="matrix(1, 0, 0, 1, 132, 557)"><g clip-path="url(#d60ea4f077)"><g fill="#fcf9f2" fill-opacity="1"><g transform="translate(1.271143, 302.970794)"><g><path d="M 8.171875 0 L 15.53125 -261.234375 L 97.703125 -261.234375 L 100.15625 -173.34375 C 106.15625 -181.25 113.925781 -188.265625 123.46875 -194.390625 C 133.007812 -200.523438 145.273438 -203.59375 160.265625 -203.59375 C 175.796875 -203.59375 187.988281 -200.59375 196.84375 -194.59375 C 205.707031 -188.601562 212.179688 -180.769531 216.265625 -171.09375 C 220.359375 -161.414062 222.945312 -150.851562 224.03125 -139.40625 C 225.125 -127.957031 225.671875 -116.648438 225.671875 -105.484375 L 225.671875 0 L 130.421875 0 L 130 -87.484375 C 130 -92.941406 128.703125 -96.894531 126.109375 -99.34375 C 123.523438 -101.800781 120.460938 -102.957031 116.921875 -102.8125 C 113.378906 -102.675781 110.3125 -101.378906 107.71875 -98.921875 C 105.132812 -96.472656 103.84375 -93.070312 103.84375 -88.71875 L 105.484375 0 Z M 8.171875 0 "/></g></g></g><g fill="#fcf9f2" fill-opacity="1"><g transform="translate(227.353864, 302.970794)"><g><path d="M 112.015625 0 C 92.390625 0 74.738281 -3.269531 59.0625 -9.8125 C 43.394531 -16.351562 30.992188 -27.253906 21.859375 -42.515625 C 12.734375 -57.773438 8.171875 -78.488281 8.171875 -104.65625 C 8.171875 -129.457031 12.734375 -149.148438 21.859375 -163.734375 C 30.992188 -178.316406 43.394531 -188.738281 59.0625 -195 C 74.738281 -201.269531 92.390625 -204.40625 112.015625 -204.40625 C 131.367188 -204.40625 147.3125 -201.613281 159.84375 -196.03125 C 172.382812 -190.445312 182.128906 -182.75 189.078125 -172.9375 C 196.035156 -163.125 200.875 -151.675781 203.59375 -138.59375 C 206.320312 -125.507812 207.6875 -111.609375 207.6875 -96.890625 L 207.6875 -81.765625 L 96.890625 -81.765625 C 96.890625 -75.765625 99.273438 -71.46875 104.046875 -68.875 C 108.816406 -66.289062 115.015625 -64.796875 122.640625 -64.390625 C 130.273438 -63.984375 138.25 -64.320312 146.5625 -65.40625 C 154.875 -66.5 162.570312 -67.929688 169.65625 -69.703125 C 176.75 -71.472656 182.203125 -73.175781 186.015625 -74.8125 L 186.015625 -18.8125 C 177.296875 -13.625 169.1875 -9.664062 161.6875 -6.9375 C 154.195312 -4.21875 146.566406 -2.378906 138.796875 -1.421875 C 131.023438 -0.472656 122.097656 0 112.015625 0 Z M 96.890625 -104.65625 L 130.421875 -104.65625 C 130.421875 -110.113281 128.921875 -114.546875 125.921875 -117.953125 C 122.921875 -121.359375 118.695312 -123.0625 113.25 -123.0625 C 108.882812 -123.0625 105.066406 -121.5625 101.796875 -118.5625 C 98.523438 -115.5625 96.890625 -110.925781 96.890625 -104.65625 Z M 96.890625 -104.65625 "/></g></g></g><g fill="#fcf9f2" fill-opacity="1"><g transform="translate(435.448109, 302.970794)"><g><path d="M 97.703125 0 C 80.535156 0 65.207031 -3.269531 51.71875 -9.8125 C 38.226562 -16.351562 27.597656 -27.050781 19.828125 -41.90625 C 12.054688 -56.757812 8.171875 -76.859375 8.171875 -102.203125 C 8.171875 -127.003906 13.484375 -146.832031 24.109375 -161.6875 C 34.742188 -176.539062 48.921875 -187.304688 66.640625 -193.984375 C 84.359375 -200.660156 103.570312 -204 124.28125 -204 C 142.8125 -204 159.367188 -200.25 173.953125 -192.75 C 188.535156 -185.257812 200.050781 -174.703125 208.5 -161.078125 C 216.945312 -147.453125 220.898438 -131.375 220.359375 -112.84375 L 217.5 -0.40625 L 149.21875 -0.40625 L 147.171875 -26.171875 C 141.992188 -18.804688 134.90625 -12.601562 125.90625 -7.5625 C 116.914062 -2.519531 107.515625 0 97.703125 0 Z M 91.578125 -83.8125 C 91.578125 -77 93.347656 -72.226562 96.890625 -69.5 C 100.429688 -66.769531 104.789062 -65.40625 109.96875 -65.40625 C 115.15625 -65.40625 119.519531 -66.90625 123.0625 -69.90625 C 126.601562 -72.90625 128.375 -77.539062 128.375 -83.8125 C 128.375 -89.800781 126.601562 -94.363281 123.0625 -97.5 C 119.519531 -100.632812 115.15625 -102.203125 109.96875 -102.203125 C 104.789062 -102.203125 100.429688 -100.835938 96.890625 -98.109375 C 93.347656 -95.390625 91.578125 -90.625 91.578125 -83.8125 Z M 91.578125 -83.8125 "/></g></g></g><g fill="#fcf9f2" fill-opacity="1"><g transform="translate(660.304288, 302.970794)"><g><path d="M 8.171875 0 L 13.90625 -198.6875 L 81.765625 -198.6875 L 85.03125 -154.953125 C 94.03125 -175.660156 107.113281 -189.757812 124.28125 -197.25 C 141.457031 -204.75 160.398438 -205.640625 181.109375 -199.921875 L 172.9375 -95.671875 L 114.46875 -101.390625 C 108.476562 -101.929688 104.390625 -100.703125 102.203125 -97.703125 C 100.023438 -94.710938 98.9375 -90.625 98.9375 -85.4375 L 100.578125 0 Z M 8.171875 0 "/></g></g></g><g fill="#fcf9f2" fill-opacity="1"><g transform="translate(841.82457, 302.970794)"><g><path d="M 94.03125 0 C 73.3125 0 57.09375 -5.3125 45.375 -15.9375 C 33.65625 -26.570312 27.796875 -42.519531 27.796875 -63.78125 L 27.796875 -105.890625 L 8.171875 -113.65625 L 8.171875 -199.921875 L 27.796875 -199.921875 L 27.390625 -257.96875 L 123.0625 -265.328125 L 120.609375 -199.921875 L 154.53125 -199.921875 L 154.53125 -105.890625 L 118.15625 -105.890625 L 117.75 -83.8125 C 117.75 -80.269531 119.378906 -78.5 122.640625 -78.5 L 154.53125 -78.5 L 154.53125 -8.578125 C 145.8125 -5.585938 137.160156 -3.410156 128.578125 -2.046875 C 119.992188 -0.679688 108.476562 0 94.03125 0 Z M 94.03125 0 "/></g></g></g><g fill="#fcf9f2" fill-opacity="1"><g transform="translate(1000.85923, 302.970794)"><g><path d="M 8.171875 0 L 15.53125 -261.234375 L 97.703125 -261.234375 L 100.15625 -173.34375 C 106.15625 -181.25 113.925781 -188.265625 123.46875 -194.390625 C 133.007812 -200.523438 145.273438 -203.59375 160.265625 -203.59375 C 175.796875 -203.59375 187.988281 -200.59375 196.84375 -194.59375 C 205.707031 -188.601562 212.179688 -180.769531 216.265625 -171.09375 C 220.359375 -161.414062 222.945312 -150.851562 224.03125 -139.40625 C 225.125 -127.957031 225.671875 -116.648438 225.671875 -105.484375 L 225.671875 0 L 130.421875 0 L 130 -87.484375 C 130 -92.941406 128.703125 -96.894531 126.109375 -99.34375 C 123.523438 -101.800781 120.460938 -102.957031 116.921875 -102.8125 C 113.378906 -102.675781 110.3125 -101.378906 107.71875 -98.921875 C 105.132812 -96.472656 103.84375 -93.070312 103.84375 -88.71875 L 105.484375 0 Z M 8.171875 0 "/></g></g></g></g></g><g clip-path="url(#823c42467d)"><path fill="#fcf9f2" d="M 778.660156 608.828125 C 778.660156 608.828125 794.648438 563.445312 820.226562 574.277344 C 845.804688 585.105469 806.609375 642.453125 778.039062 658.132812 C 778.039062 658.132812 701.199219 613.472656 734.824219 574.6875 C 768.449219 535.90625 778.660156 608.828125 778.660156 608.828125 Z M 778.660156 608.828125 " fill-opacity="1" fill-rule="nonzero"/></g></svg>